<svg width="29" height="20" viewBox="0 0 29 20" fill="none" xmlns="http://www.w3.org/2000/svg">
<path d="M10.8109 1.38262C15.9155 -0.264075 20.0206 0.632419 22.8588 1.96612C25.5395 3.22583 27.0832 4.87215 27.29 5.10934L27.2909 5.10904C27.2936 5.11205 27.2962 5.11575 27.2988 5.11878C27.3048 5.12578 27.3095 5.13081 27.312 5.134L27.3111 5.1343C27.5634 5.42919 27.6971 5.79152 27.7004 6.1675C27.7016 6.30084 27.6412 15.2377 17.3991 18.5422C12.2942 20.1891 8.18855 19.2928 5.35027 17.959C2.66609 16.6976 1.12224 15.0486 0.918708 14.8149L0.918129 14.8161C0.913363 14.8107 0.909887 14.8042 0.905202 14.7987C0.902306 14.7953 0.898607 14.7931 0.897055 14.7911L0.897634 14.7899C0.6458 14.4952 0.511949 14.1332 0.508608 13.7576C0.507459 13.6192 0.571348 4.68605 10.8109 1.38262ZM12.7726 7.01722C10.9755 7.69194 10.0826 9.52188 10.6789 11.0749C11.2947 12.6779 13.349 13.5988 15.2639 12.981C17.0792 12.3951 18.0449 10.6602 17.6163 9.11547L16.7319 9.58419L16.4993 9.7074L16.256 9.58508L13.2556 8.08477L13.0463 7.98018L12.9842 7.76147L12.7726 7.01722Z" fill="#DB26EC" stroke="#270136"/>
</svg>
