<svg width="21" height="20" viewBox="0 0 21 20" fill="none" xmlns="http://www.w3.org/2000/svg">
<path d="M1.59848 5.90692C2.82727 3.48773 5.5928 2.47238 8.04909 3.45232C9.40048 1.27765 12.1035 0.44082 14.4649 1.48923L14.6988 1.60045L14.7001 1.60107C17.2523 2.8975 18.2473 5.92405 16.9587 8.47487L13.0422 16.2273C12.906 16.4805 12.6872 16.6656 12.4224 16.7528C12.1628 16.8381 11.8762 16.8312 11.6055 16.6944L3.8583 12.7813C1.30736 11.4926 0.313321 8.46581 1.59879 5.90784L1.59848 5.90692ZM13.7382 3.50342C12.2417 2.75364 10.4802 3.33393 9.72863 4.82149L9.46769 5.33799C9.38101 5.50957 9.25367 5.64913 9.1019 5.74813L11.8006 13.9575L15.0569 7.5118C15.2365 7.16293 15.345 6.78141 15.376 6.39026C15.4069 5.99898 15.3594 5.6051 15.2369 5.23223C15.1143 4.85932 14.9188 4.51417 14.6617 4.21753C14.4047 3.92099 14.0911 3.67834 13.7395 3.50404L13.7382 3.50342Z" fill="#FF33BB" stroke="#771717" stroke-width="0.5" stroke-linecap="round"/>
</svg>
