<svg width="20" height="20" viewBox="0 0 20 20" fill="none" xmlns="http://www.w3.org/2000/svg">
<path d="M4.85254 10.7461L9.26465 15.1543L11.4141 17.3008L10.2861 18.4277L8.13672 16.2803L7.99512 16.1387L7.85449 16.2803L4.58887 19.541L3.99316 19.7832L3.39648 19.54L0.467773 16.6143L0.458984 16.6006L0.264648 16.3105L0.203125 16.0068L0.264648 15.7031L0.450195 15.4258L3.72559 12.1553L3.86719 12.0137L3.72559 11.8721L1.5752 9.72461L2.70312 8.59766L4.85254 10.7461ZM19.7998 0.200195V3.97949L19.7363 4.30371L19.5537 4.58008L10.1162 14.0098L5.9873 9.88379L15.4004 0.469727L16.0381 0.209961H19.1992V0.200195H19.7998Z" fill="#262525" stroke="#686868" stroke-width="0.4"/>
</svg>
