<svg width="21" height="25" viewBox="0 0 21 25" fill="none" xmlns="http://www.w3.org/2000/svg">
<path d="M18.0861 6.76317L14.296 13.1387L14.2897 13.3576L14.2757 13.8798L17.0683 9.18237L20.269 11.0852L16.6296 17.2071L16.5251 17.2722L11.6311 20.2853L9.59211 23.7152L9.38412 23.7632L7.54891 24.1843L7.35381 24.2296L1.15713 20.5458L1.10291 20.3523L0.596951 18.5393L0.538835 18.3332L2.15668 15.6118L1.01535 13.0292L0.959396 12.9016L0.97742 12.7624L1.49212 8.81596L1.50527 8.71358L3.70248 5.01756L11.5856 9.70393L9.41432 13.3563L5.31705 10.9205L5.16335 11.1791L9.57121 13.7995L14.8854 4.86037L18.0861 6.76317ZM14.2468 14.9203L15.3124 15.6924L16.407 16.0012L14.2522 14.7202L14.2468 14.9203ZM12.5284 12.523L13.2564 12.8444L13.6413 12.8449L11.6216 11.6442L12.5284 12.523ZM11.0626 2.5878L8.22661 7.35829L5.02585 5.4555L7.86183 0.68501L11.0626 2.5878ZM15.239 3.55845L11.7388 9.44622L8.53804 7.54343L12.0382 1.65566L15.239 3.55845Z" fill="#57555B" stroke="#262525"/>
</svg>
