<svg width="26" height="20" viewBox="0 0 26 20" fill="none" xmlns="http://www.w3.org/2000/svg">
<path d="M9.86836 1.38503C14.516 -0.250685 18.252 0.641413 20.8279 1.96197C23.2627 3.21011 24.661 4.84066 24.8445 5.07044L24.8464 5.0698C25.0846 5.36221 25.2092 5.72578 25.2123 6.10363C25.2132 6.21939 25.1662 15.0833 15.8441 18.3642C11.1964 19.9999 7.46045 19.1078 4.88447 17.7872C2.4472 16.5378 1.0487 14.9049 0.86755 14.6778L0.866032 14.6794C0.627815 14.387 0.503191 14.0234 0.50011 13.6456C0.499203 13.5297 0.546265 4.66589 9.86836 1.38503ZM11.4358 7.07405C9.99779 7.79232 9.27194 9.47673 9.7934 10.9587C10.359 12.5657 12.2171 13.4404 13.9024 12.8472C15.4509 12.3023 16.3361 10.7003 16.0311 9.1972C15.8363 9.32663 15.621 9.43782 15.3814 9.52213C13.837 10.0655 12.1198 9.28758 11.5799 7.75423C11.5006 7.52889 11.4548 7.30022 11.4358 7.07405Z" fill="#DB26EC" stroke="#270136"/>
</svg>
