<svg width="20" height="18" viewBox="0 0 20 18" fill="none" xmlns="http://www.w3.org/2000/svg">
<path d="M1.98176 14.3987C1.1087 13.0961 1.02839 11.8649 1.17623 10.9534C1.31327 10.1089 1.64666 9.54295 1.71104 9.44302L1.70996 9.4414C1.71158 9.43884 1.71423 9.43702 1.71589 9.4345C1.71748 9.43213 1.71803 9.42981 1.71894 9.42854L1.71949 9.42935C1.79546 9.31637 1.9041 9.2373 2.02858 9.20046C2.07655 9.18629 4.60447 8.48469 6.36038 11.1043C7.23343 12.4069 7.31378 13.6381 7.16592 14.5496C7.0285 15.3964 6.69341 15.963 6.63032 16.0606L6.63219 16.0616C6.6304 16.0644 6.62731 16.0663 6.62547 16.0691C6.62414 16.0711 6.62401 16.0734 6.6232 16.0745L6.62188 16.0743C6.54595 16.1868 6.43771 16.2658 6.31357 16.3026C6.2656 16.3167 3.73768 17.0182 1.98176 14.3987ZM3.67897 13.428C3.98117 13.7013 4.40351 13.732 4.68716 13.5188C5.02568 13.2641 5.11977 12.6967 4.82619 12.2586C4.59041 11.9069 4.19814 11.7785 3.87744 11.873C3.89725 11.8974 3.91765 11.9225 3.93595 11.9497C4.23968 12.4032 4.18324 13.0547 3.74255 13.3863C3.72195 13.4018 3.70026 13.4149 3.67897 13.428Z" fill="#DB26EC" stroke="#270136" stroke-width="0.5"/>
<path d="M13.7639 10.3984C13.363 8.88249 13.6883 7.69228 14.1252 6.87875C14.53 6.125 15.0296 5.6986 15.123 5.62512L15.1225 5.62323C15.1249 5.62134 15.128 5.62048 15.1304 5.61863C15.1326 5.61692 15.1339 5.6149 15.1352 5.614L15.1354 5.61494C15.2441 5.53289 15.3726 5.49354 15.5023 5.49928C15.5522 5.50151 18.1708 5.66206 18.9771 8.71095C19.378 10.2269 19.0527 11.4171 18.6159 12.2306C18.21 12.9865 17.7085 13.4128 17.6171 13.4846L17.6185 13.4862C17.6159 13.4882 17.6124 13.489 17.6097 13.491C17.6078 13.4925 17.607 13.4946 17.6058 13.4954L17.6046 13.4947C17.4962 13.5764 17.3681 13.6158 17.2388 13.6101C17.1888 13.6079 14.5703 13.4472 13.7639 10.3984ZM15.6848 10.0339C15.8814 10.3907 16.2707 10.5574 16.6083 10.4483C17.0114 10.3178 17.2853 9.81206 17.1505 9.30221C17.0422 8.89282 16.7132 8.64363 16.3792 8.62841C16.39 8.65799 16.4011 8.68831 16.4095 8.72008C16.5489 9.24774 16.2832 9.84534 15.7585 10.0152C15.734 10.0231 15.7092 10.0284 15.6848 10.0339Z" fill="#DB26EC" stroke="#270136" stroke-width="0.5"/>
<path d="M5.14345 11.1452C3.71084 8.75355 3.67887 6.55718 4.02442 4.94863C4.34315 3.46552 4.98177 2.48892 5.11223 2.30721L5.11123 2.30553C5.11503 2.30015 5.1197 2.2954 5.12359 2.29012C5.12658 2.28612 5.12813 2.28222 5.12998 2.27991L5.13048 2.28075C5.28332 2.07745 5.49466 1.94085 5.72955 1.88423C5.82175 1.86201 10.3795 0.845914 13.2628 5.65941C14.6954 8.05128 14.7267 10.248 14.381 11.8565C14.0619 13.3408 13.4223 14.3167 13.2927 14.4971L13.295 14.4991C13.141 14.7164 12.9206 14.8606 12.6762 14.9196C12.584 14.9418 8.02676 15.9584 5.14345 11.1452ZM8.37231 9.56382C8.86164 10.0073 9.54074 10.0735 10.0155 9.75282C10.6048 9.35465 10.8195 8.40075 10.3546 7.62433C10.0011 7.0343 9.394 6.77904 8.86417 6.86491C8.87884 6.88726 8.89422 6.90938 8.90824 6.9328C9.41767 7.78325 9.25874 8.96725 8.42024 9.53378C8.4045 9.54441 8.38822 9.55389 8.37231 9.56382Z" fill="#DB26EC" stroke="#270136"/>
</svg>
