<svg width="21" height="21" viewBox="0 0 21 21" fill="none" xmlns="http://www.w3.org/2000/svg">
<path d="M1.38874 14.3435L0.365767 14.5979L0.445243 14.7536L5.39006 19.3377C5.39006 19.3377 9.95672 20.4631 12.265 19.8879L13.464 19.5908C11.2334 15.3089 1.38874 14.3435 1.38874 14.3435ZM13.464 19.5908L14.5719 19.0444C18.9672 16.8831 20.2926 7.49706 20.2926 7.49706L20.2529 7.32681L19.307 7.79219C19.307 7.79219 12.3968 14.8835 13.464 19.5908ZM4.12172 12.6921C5.22144 13.5725 6.86313 13.4071 7.81156 12.3321C7.8607 12.2815 7.8929 12.2154 7.93854 12.1552C7.96307 12.2223 7.99226 12.3638 7.99226 12.3638L9.34 13.7924L11.3545 13.8517L12.8556 12.507L12.964 10.5461C12.9395 10.4789 12.8951 10.4191 12.8705 10.352C12.9442 10.3685 13.0115 10.3983 13.0816 10.4052C13.0816 10.4052 15.8874 9.662 16.1429 8.26433C16.4019 6.87624 15.465 5.57765 14.0498 5.34514C13.9796 5.33819 13.8995 5.33488 13.8328 5.33751C13.8819 5.28694 13.9445 5.24232 13.9902 5.18216C14.9415 4.08438 14.8129 2.46849 13.7097 1.57848C13.4477 1.36478 13.1437 1.20448 12.8152 1.10677C12.4866 1.00906 12.1398 0.975875 11.7948 1.00911C11.4499 1.04234 11.1134 1.14134 10.8048 1.30043C10.4962 1.45953 10.2215 1.67558 9.99647 1.9362C9.95083 1.99636 9.91513 2.05288 9.86949 2.11305C9.84495 2.04594 9.8403 1.97156 9.81577 1.90445C9.58336 1.26878 9.09856 0.75491 8.46802 0.475878C7.83749 0.196846 7.11287 0.175509 6.45357 0.416562C5.79427 0.657614 5.2543 1.14131 4.95244 1.76124C4.65059 2.38118 4.61158 3.08656 4.84399 3.72223C4.86852 3.78934 4.91295 3.84918 4.93748 3.91628C4.8638 3.89975 4.79656 3.86999 4.72638 3.86304C3.2948 3.64739 1.92065 4.60629 1.66512 6.00396C1.40608 7.39204 2.34306 8.69064 3.75826 8.92315C3.83194 8.93968 3.90856 8.93341 3.97873 8.94036C3.92959 8.99093 3.86699 9.03556 3.81785 9.08613C2.87993 10.1899 3.01849 11.8021 4.13166 12.6885L4.12172 12.6921ZM8.02098 4.73439L10.0354 4.79371L11.3832 6.22228L11.2747 8.18326L9.7736 9.52794L7.75914 9.46863L6.4114 8.04006L6.51986 6.07907L8.02098 4.73439Z" fill="#00FF11"/>
<path d="M13.464 19.5908L12.265 19.8879C9.95672 20.4631 5.39006 19.3377 5.39006 19.3377L0.445243 14.7536L0.365767 14.5979L1.38874 14.3435C1.38874 14.3435 11.2334 15.3089 13.464 19.5908ZM13.464 19.5908L14.5719 19.0444C18.9672 16.8831 20.2926 7.49706 20.2926 7.49706L20.2529 7.32681L19.307 7.79219C19.307 7.79219 12.3968 14.8835 13.464 19.5908ZM4.12172 12.6921C5.22144 13.5725 6.86313 13.4071 7.81156 12.3321C7.8607 12.2815 7.8929 12.2154 7.93854 12.1552C7.96307 12.2223 7.99226 12.3638 7.99226 12.3638L9.34 13.7924L11.3545 13.8517L12.8556 12.507L12.964 10.5461C12.9395 10.4789 12.8951 10.4191 12.8705 10.352C12.9442 10.3685 13.0115 10.3983 13.0816 10.4052C13.0816 10.4052 15.8874 9.662 16.1429 8.26433C16.4019 6.87624 15.465 5.57765 14.0498 5.34514C13.9796 5.33819 13.8995 5.33488 13.8328 5.33751C13.8819 5.28694 13.9445 5.24232 13.9902 5.18216C14.9415 4.08438 14.8129 2.46849 13.7097 1.57848C13.4477 1.36478 13.1437 1.20448 12.8152 1.10677C12.4866 1.00906 12.1398 0.975875 11.7948 1.00911C11.4499 1.04234 11.1134 1.14134 10.8048 1.30043C10.4962 1.45953 10.2215 1.67558 9.99647 1.9362C9.95083 1.99636 9.91513 2.05288 9.86949 2.11305C9.84495 2.04594 9.8403 1.97156 9.81577 1.90445C9.58336 1.26878 9.09856 0.75491 8.46802 0.475878C7.83749 0.196846 7.11287 0.175509 6.45357 0.416562C5.79427 0.657614 5.2543 1.14131 4.95244 1.76124C4.65059 2.38118 4.61158 3.08656 4.84399 3.72223C4.86852 3.78934 4.91295 3.84918 4.93748 3.91628C4.8638 3.89975 4.79656 3.86999 4.72638 3.86304C3.2948 3.64739 1.92065 4.60629 1.66512 6.00396C1.40608 7.39204 2.34306 8.69064 3.75826 8.92315C3.83194 8.93968 3.90856 8.93341 3.97873 8.94036C3.92959 8.99093 3.86699 9.03556 3.81785 9.08613C2.87993 10.1899 3.01849 11.8021 4.13166 12.6885L4.12172 12.6921ZM8.02098 4.73439L10.0354 4.79371L11.3832 6.22228L11.2747 8.18326L9.7736 9.52794L7.75914 9.46863L6.4114 8.04006L6.51986 6.07907L8.02098 4.73439Z" stroke="#1A8903" stroke-width="0.5"/>
</svg>
