<svg width="18" height="18" viewBox="0 0 18 18" fill="none" xmlns="http://www.w3.org/2000/svg">
<path d="M12.3345 12.4379L12.8476 15.5773L15.4025 16.1063L17.1146 13.244L16.996 10.5081L15.7615 11.2175L15.0042 8.34931L12.3345 12.4379Z" fill="#C31F1F" stroke="#ECB726" stroke-width="0.5"/>
<path d="M14.5606 15.5642L13.6482 15.3753L13.5549 13.7016L14.7967 12.7179L15.424 13.8588L14.5606 15.5642Z" fill="#ECB726" stroke="#ECB726" stroke-width="0.5"/>
<path d="M1.53319 14.1829L3.66354 16.804L6.29662 15.9424L6.36248 12.4014L4.80858 9.94357L4.04592 11.249L1.83375 9.00654L1.53319 14.1829Z" fill="#C31F1F" stroke="#ECB726" stroke-width="0.5"/>
<path d="M5.23476 15.8877L4.29438 16.1954L3.32472 14.7028L3.94928 13.1409L5.12959 13.8608L5.23476 15.8877Z" fill="#ECB726" stroke="#ECB726" stroke-width="0.5"/>
<path d="M4.84384 9.98201L7.21518 15.5416L12.1694 15.3584L14.0295 9.30011L12.5692 4.30582L10.6133 6.17498L7.91443 1.22649L4.84384 9.98201Z" fill="#C31F1F" stroke="#ECB726"/>
<path d="M10.37 14.7405L8.6006 14.8059L7.66906 11.76L9.51387 9.38159L11.189 11.2021L10.37 14.7405Z" fill="#ECB726" stroke="#ECB726"/>
</svg>
