<svg width="27" height="18" viewBox="0 0 27 18" fill="none" xmlns="http://www.w3.org/2000/svg">
<path d="M1.57757 5.81077C2.89806 3.57918 5.70113 2.56778 8.12384 3.37202C9.5504 1.35415 12.2809 0.498151 14.61 1.36011L14.8403 1.45093L14.8406 1.45186C17.3696 2.53798 18.2688 5.27015 16.8744 7.63884L12.6686 14.7832L12.6652 14.7884C12.5189 15.023 12.2967 15.1932 12.0378 15.2784C11.784 15.3618 11.5026 15.3685 11.2353 15.2544L3.61079 11.999C1.08312 10.9196 0.185665 8.1868 1.57695 5.812L1.57757 5.81077ZM13.8545 3.25528C12.3756 2.62937 10.5691 3.22347 9.75826 4.6008L9.47804 5.07738C9.38526 5.23486 9.256 5.3623 9.10651 5.45445L11.5002 12.7361L15.01 6.77351L15.0115 6.77197C15.2037 6.45108 15.3242 6.10582 15.3687 5.75713C15.4132 5.40845 15.3805 5.06125 15.2738 4.73671C15.1671 4.41235 14.9876 4.1141 14.7451 3.85994C14.5023 3.6057 14.2005 3.39926 13.8554 3.25498L13.8545 3.25528Z" fill="#771717" stroke="#FF33BB" stroke-width="0.5" stroke-linecap="round"/>
<path d="M12.809 8.19007C13.6949 6.44602 15.6785 5.70224 17.4544 6.37929C18.4827 4.78038 20.5275 4.20605 22.2681 5.08061L22.269 5.0803C24.1283 6.02457 24.8542 8.23055 23.9155 10.0891L21.1184 15.6273L21.115 15.6325C21.0092 15.8291 20.8383 15.9743 20.6309 16.0424C20.4291 16.1087 20.2048 16.104 19.9931 15.9972L14.4555 13.1988C12.597 12.2599 11.8717 10.0538 12.8081 8.19038L12.809 8.19007ZM21.5183 6.56786C20.4834 6.04918 19.2666 6.45061 18.7472 7.4788L18.5609 7.84738C18.5023 7.96357 18.4192 8.06222 18.3201 8.13728L20.1786 13.7908L22.4292 9.33588C22.5531 9.09495 22.6282 8.83143 22.6495 8.56135C22.6708 8.29128 22.638 8.01971 22.5534 7.76234C22.4687 7.50478 22.334 7.2661 22.1564 7.06122C21.9789 6.85641 21.7623 6.68888 21.5195 6.56848L21.5183 6.56786Z" fill="#771717" stroke="#FF33BB" stroke-width="0.5" stroke-linecap="round"/>
</svg>
