<svg width="21" height="16" viewBox="0 0 21 16" fill="none" xmlns="http://www.w3.org/2000/svg">
<path d="M11.7969 11.9598L9.60576 11.062L7.75011 11.753L7.08593 9.96923L4.88876 8.88324L5.84059 6.62472L5.1349 4.72949L6.99055 4.03854L8.06087 1.9263L10.3645 2.78225L12.2201 2.09129L12.9258 3.98651L15.123 5.0725L14.1712 7.33103L14.8353 9.11477L12.9797 9.80573L11.7969 11.9598Z" fill="#737000" stroke="#FFF700"/>
<path d="M11.2165 4.31296L8.96367 4.21775L7.32176 5.76316L7.21144 7.75724L8.71015 9.49184L11.0185 9.7362L12.6049 8.04164L12.5292 5.77715L11.2165 4.31296Z" fill="#FFF700" stroke="#FFF700"/>
<path d="M5.69436 14.7418L4.27601 14.1606L3.07482 14.6079L2.64488 13.4532L1.22263 12.7502L1.83876 11.2883L1.38195 10.0615L2.58314 9.6142L3.27598 8.24691L4.76713 8.80098L5.96832 8.35372L6.42513 9.58052L7.84739 10.2835L7.23126 11.7455L7.66119 12.9001L6.46 13.3474L5.69436 14.7418Z" fill="#737000" stroke="#FFF700" stroke-width="0.5"/>
<path d="M5.3187 9.79186L3.86043 9.73023L2.7976 10.7306L2.72618 12.0214L3.69632 13.1442L5.19054 13.3024L6.21743 12.2055L6.16846 10.7397L5.3187 9.79186Z" fill="#FFF700" stroke="#FFF700" stroke-width="0.5"/>
<path d="M14.1884 13.7545L13.5872 12.3444L12.4182 11.8189L12.9233 10.6951L12.405 9.19571L13.8705 8.58808L14.4073 7.39408L15.5763 7.91962L17.0299 7.43327L17.7019 8.87513L18.871 9.40066L18.3342 10.5947L18.8526 12.0941L17.3871 12.7017L16.8819 13.8255L15.7128 13.3L14.1884 13.7545Z" fill="#737000" stroke="#FFF700" stroke-width="0.5"/>
<path d="M17.3984 9.96779L16.4038 8.89948L14.9447 8.86478L13.9871 9.73324L13.8887 11.2139L14.841 12.3761L16.3424 12.3169L17.3373 11.2393L17.3984 9.96779Z" fill="#FFF700" stroke="#FFF700" stroke-width="0.5"/>
</svg>
