<svg width="21" height="19" viewBox="0 0 21 19" fill="none" xmlns="http://www.w3.org/2000/svg">
<path d="M5.11035 10.2227L9.74219 14.4102L11.9824 16.4365L10.7998 17.5059L8.5293 15.4521L8.39551 15.3311L8.26074 15.4521L4.83398 18.5498L4.19336 18.7861L3.55273 18.5498L0.476562 15.7695L0.467773 15.7568L0.265625 15.4854L0.204102 15.207L0.266602 14.9268L0.455078 14.6719L3.89746 11.5615L4.06152 11.4131L3.89746 11.2646L1.65527 9.23828L2.83789 8.16992L5.11035 10.2227ZM20.7998 0.200195V3.77832L20.7354 4.0791L20.5459 4.33789L10.6221 13.3086L6.28809 9.38965L16.1572 0.458984L16.833 0.209961H20.1494V0.200195H20.7998Z" fill="#262525" stroke="#686868" stroke-width="0.4"/>
<path d="M15.8896 10.2227L11.2578 14.4102L9.01758 16.4365L10.2002 17.5059L12.4707 15.4521L12.6045 15.3311L12.7393 15.4521L16.166 18.5498L16.8066 18.7861L17.4473 18.5498L20.5234 15.7695L20.5322 15.7568L20.7344 15.4854L20.7959 15.207L20.7334 14.9268L20.5449 14.6719L17.1025 11.5615L16.9385 11.4131L17.1025 11.2646L19.3447 9.23828L18.1621 8.16992L15.8896 10.2227ZM0.200195 0.200195V3.77832L0.264648 4.0791L0.454102 4.33789L10.3779 13.3086L14.7119 9.38965L4.84277 0.458984L4.16699 0.209961H0.850586V0.200195H0.200195Z" fill="#262525" stroke="#686868" stroke-width="0.4"/>
</svg>
