<svg width="25" height="19" viewBox="0 0 25 19" fill="none" xmlns="http://www.w3.org/2000/svg">
<path d="M0.966797 13.6982C0.917314 13.6922 0.875725 13.6722 0.847656 13.6465L0.84668 13.6445C0.818229 13.6187 0.80446 13.5903 0.800781 13.5654C0.797169 13.5409 0.80257 13.5138 0.819336 13.4873L2.5332 10.7871L2.7334 10.4707L2.38086 10.3438L0.417969 9.63867V9.6377C0.337597 9.60821 0.304908 9.55048 0.300781 9.50586C0.30106 9.48599 0.306542 9.46456 0.320312 9.44336C0.335907 9.41944 0.361684 9.39569 0.398438 9.37891L1.89258 8.70801L2.23242 8.55566L2.01074 8.25586L0.327148 5.97852C0.307399 5.95108 0.300404 5.92261 0.302734 5.89746C0.305215 5.87187 0.317882 5.84242 0.345703 5.81543C0.37427 5.78777 0.41696 5.76518 0.46875 5.75781C0.520681 5.75047 0.572898 5.75991 0.615234 5.78125L3.68652 7.36035L3.9248 7.48242L4.07324 7.25977L5.32129 5.38965C5.35686 5.33738 5.421 5.29986 5.50293 5.2998C5.50293 5.2998 5.5041 5.29964 5.50684 5.2998C5.51009 5.3 5.51412 5.30018 5.52148 5.30078C5.52762 5.30128 5.53676 5.30207 5.54785 5.30273C5.6435 5.31937 5.68926 5.37788 5.69922 5.42383L5.7002 5.42578L6.08008 7.13086L6.15527 7.4707L6.48047 7.3457L9.41406 6.21582L9.41699 6.21484C9.51085 6.17791 9.61521 6.20749 9.66699 6.26562C9.70834 6.31217 9.71208 6.37056 9.6709 6.4248L7.41699 9.26562L7.24219 9.48633L7.45117 9.6748L9.64844 11.6533C9.70342 11.7056 9.70596 11.7661 9.68066 11.8105C9.66566 11.8367 9.63824 11.8634 9.59766 11.8818C9.57715 11.8912 9.55463 11.8972 9.53125 11.9004H9.46094L7.04199 11.5361L6.69727 11.4844V13.5488C6.69704 13.5712 6.69018 13.5968 6.67188 13.6211C6.65325 13.6458 6.62335 13.6697 6.58301 13.6846C6.54248 13.6995 6.49577 13.7034 6.45117 13.6953C6.40691 13.6873 6.37004 13.6681 6.34375 13.6445L4.61426 12.0869L4.46094 11.9482L4.27637 12.043L1.10742 13.6729L1.10547 13.6738C1.06607 13.6946 1.01647 13.7042 0.966797 13.6982Z" fill="#ECB726" stroke="#686868" stroke-width="0.6"/>
<path d="M15.0566 15.6982C14.9904 15.6909 14.9372 15.6657 14.9023 15.6367L14.9004 15.6357C14.8654 15.6069 14.8535 15.5791 14.8506 15.5615C14.848 15.5454 14.8507 15.5243 14.8682 15.499L16.7539 12.7979L16.9844 12.4668L16.6006 12.3418L14.4414 11.6357V11.6348C14.335 11.5994 14.3061 11.5362 14.3018 11.5049C14.3023 11.4914 14.3052 11.4739 14.3193 11.4541C14.328 11.4421 14.3404 11.4294 14.3564 11.417L14.417 11.3828L16.0605 10.7119L16.4346 10.5596L16.1797 10.2451L14.3281 7.96973V7.96875C14.3057 7.94085 14.302 7.91699 14.3037 7.90039C14.3056 7.8829 14.315 7.8549 14.3486 7.8252C14.3836 7.7944 14.4389 7.76768 14.5078 7.75879C14.5423 7.75436 14.5767 7.75496 14.6094 7.75977L14.7002 7.78613L18.0791 9.36523L18.3027 9.46875L18.4482 9.27051L19.8223 7.39844C19.863 7.34545 19.9438 7.2998 20.0537 7.2998C20.0574 7.29982 20.0623 7.30058 20.0781 7.30176C20.086 7.30235 20.0976 7.30304 20.1113 7.30371C20.2424 7.32402 20.2925 7.39495 20.3008 7.42969V7.43164L20.7188 9.1377L20.7969 9.45801L21.1094 9.34961L24.3359 8.21973L24.3389 8.21875C24.4652 8.17344 24.6024 8.21126 24.666 8.27637C24.6939 8.30494 24.6998 8.32956 24.7002 8.34473C24.7005 8.36022 24.6963 8.38625 24.6699 8.41699L22.1914 11.2539L21.9873 11.4873L22.2275 11.6836L24.6426 13.6611C24.6779 13.691 24.6907 13.7204 24.6943 13.7393C24.6976 13.7563 24.6955 13.776 24.6807 13.7998C24.6646 13.8251 24.6322 13.856 24.5791 13.8779C24.5524 13.8889 24.5229 13.8965 24.4922 13.9004H24.3984L21.7383 13.5352L21.3975 13.4893V15.5488C21.3973 15.5636 21.3917 15.5855 21.3711 15.6104C21.3497 15.636 21.3128 15.6629 21.2598 15.6807C21.2066 15.6985 21.1459 15.704 21.0869 15.6943C21.0277 15.6846 20.9799 15.6614 20.9473 15.6348L19.0449 14.0781L18.8984 13.958L18.7275 14.0381L15.2422 15.668L15.2402 15.6689C15.1888 15.6936 15.123 15.7055 15.0566 15.6982Z" fill="#ECB726" stroke="#686868" stroke-width="0.6"/>
<path d="M18.3721 0.304688C18.4822 0.321109 18.591 0.379716 18.6777 0.478516L18.6787 0.479492C18.7668 0.578535 18.827 0.711911 18.8447 0.860352C18.858 0.971645 18.8463 1.08334 18.8125 1.18555L18.7715 1.28418L15.8574 6.98535L15.7139 7.2666L16.002 7.39551L19.3418 8.8877C19.5134 8.96633 19.6489 9.14584 19.6885 9.37305L19.6992 9.47363C19.701 9.59861 19.6729 9.72043 19.6182 9.8252C19.5606 9.93522 19.4782 10.0191 19.3857 10.0713L16.8457 11.4873L16.5762 11.6377L16.7334 11.9033L19.5957 16.709V16.71C19.6689 16.8342 19.7049 16.9864 19.6934 17.1406C19.6818 17.2948 19.6244 17.4358 19.5361 17.542C19.4484 17.6475 19.3369 17.7113 19.2227 17.7314C19.1088 17.7514 18.9897 17.7284 18.8838 17.6621H18.8828L13.6611 14.3281L13.3887 14.1543L13.2354 14.4395L11.1123 18.3906C10.9964 18.6019 10.8182 18.7002 10.6445 18.7002C10.6365 18.7002 10.6273 18.6998 10.6025 18.6973C10.5892 18.6959 10.5697 18.6947 10.5469 18.6934C10.3411 18.6495 10.1562 18.4676 10.1074 18.1885V18.1865L9.46191 14.585L9.39258 14.1982L9.03711 14.3682L4.0498 16.7529L4.04688 16.7539C3.84153 16.8547 3.58878 16.797 3.42871 16.5732C3.26477 16.3438 3.25512 16.0116 3.41211 15.7598L7.24414 9.76367L7.36719 9.57129L7.21484 9.40234L3.47656 5.2207C3.30162 5.01523 3.25282 4.697 3.37305 4.43457C3.43061 4.30928 3.51872 4.21354 3.62012 4.15625C3.72015 4.09978 3.83055 4.08082 3.93652 4.09961V4.10059L8.04883 4.87012L8.4043 4.93652V0.947266C8.40546 0.812011 8.44275 0.682568 8.50781 0.575195C8.57275 0.468066 8.66097 0.39011 8.75781 0.345703C8.85418 0.301582 8.95811 0.291139 9.05762 0.313477C9.15746 0.335948 9.25462 0.391821 9.33398 0.480469L12.2734 3.76758L12.4434 3.95801L12.6582 3.82031L18.0449 0.380859L18.0479 0.378906C18.149 0.312819 18.2626 0.288452 18.3721 0.304688Z" fill="#ECB726" stroke="#686868" stroke-width="0.6"/>
<path d="M15.881 7.03986L14.0351 10.1449L14.0333 10.2359L14.0325 10.2831L15.3 8.15095L16.9646 9.14052L15.1746 12.1516L15.1104 12.1907L12.7482 13.6187L11.7602 15.2807L11.6325 15.3082L10.7384 15.505L10.6223 15.5302L7.54746 13.7023L7.51417 13.5882L7.25988 12.7088L7.22302 12.5835L7.99951 11.2774L7.44419 10.052L7.40988 9.97591L7.41992 9.89213L7.65518 7.98474L7.66279 7.92224L8.75766 6.08053L12.7198 8.43594L11.6139 10.2961L9.6035 9.10095L9.59002 9.12361L11.6584 10.3532L14.2164 6.05029L15.881 7.03986ZM14.5137 11.3179L14.596 11.3418L14.3139 11.1741L14.5137 11.3179ZM13.1463 9.77673L13.3134 9.85108L13.0775 9.71085L13.1463 9.77673ZM12.4351 4.99135L11.0094 7.38961L9.34481 6.40004L10.7705 4.00178L12.4351 4.99135ZM14.4779 5.47862L12.7328 8.41411L11.0682 7.42454L12.8133 4.48905L14.4779 5.47862Z" fill="#57555B" stroke="#262525" stroke-width="0.6"/>
</svg>
